<?xml version="1.0" standalone="no"?>
<!DOCTYPE svg PUBLIC "-//W3C//DTD SVG 20010904//EN"
 "http://www.w3.org/TR/2001/REC-SVG-20010904/DTD/svg10.dtd">
<svg 
      xmlns="http://www.w3.org/2000/svg"
      width="525" 
      height="107" 
      viewBox="0 0 525 107"
      fill="none"
    >
  <path d="M196.45 81.45C196.45 97.65 181.15 106.8 160.3 106.8C137.8 106.8 123.4 97.65 122.65 80.4C122.65 79.65 123.25 79.05 124 79.05H143.2C143.95 79.05 144.55 79.65 144.55 80.4C145.15 89.1 150.85 92.85 161.35 92.85C170.2 92.85 175 89.4 175 83.4C175 68.7 124.45 82.95 124.45 50.55C124.45 34.5 137.35 25.95 158.2 25.95C178.45 25.95 192.1 34.05 193.45 50.25C193.6 51 193 51.6 192.25 51.6H173.95C173.2 51.6 172.6 51 172.45 50.25C171.25 43.65 167.05 39.6 157.9 39.6C150.55 39.6 145.9 42.3 145.9 48.9C145.9 63.6 196.45 48.6 196.45 81.45Z" fill="#ffffff"/>
  <path d="M247.017 90.15V102.15C247.017 102.9 246.417 103.65 245.817 103.95C241.467 105.45 236.517 106.5 231.717 106.5C218.667 106.5 206.217 99.9 206.217 82.35L206.367 43.65H197.667C196.917 43.65 196.317 43.05 196.317 42.3V29.1C196.317 28.35 196.917 27.75 197.667 27.75H206.367L206.217 9.75C206.217 9 206.817 8.4 207.567 8.4H227.517C228.267 8.4 228.867 9 228.867 9.75L228.717 27.75H245.817C246.567 27.75 247.167 28.35 247.167 29.1V42.3C247.167 43.05 246.567 43.65 245.817 43.65H228.567L228.717 81.75C228.717 88.35 232.017 90.45 236.967 90.45C240.567 90.45 243.417 89.85 245.667 89.1C246.417 88.95 247.017 89.55 247.017 90.15Z" fill="#ffffff"/>
  <path d="M303.345 95.25C298.095 102 289.245 106.8 278.445 106.8C262.095 106.8 251.445 95.7 251.445 76.8V60.6L251.145 29.1C251.145 28.35 251.745 27.75 252.495 27.75H272.595C273.345 27.75 273.945 28.35 273.945 29.1L273.495 60.6V76.5C273.495 84.9 278.595 90.3 285.345 90.3C293.445 90.3 302.145 82.8 302.145 66.3V60.6L301.845 29.1C301.845 28.35 302.445 27.75 303.195 27.75H323.595C324.345 27.75 324.945 28.35 324.945 29.1L324.495 64.8L324.645 103.65C324.645 104.4 324.045 105 323.295 105H304.245C303.495 105 302.895 104.4 302.895 103.65L303.345 95.25Z" fill="#ffffff"/>
  <path d="M353.172 65.55C353.172 82.95 359.172 91.8 369.972 91.65C380.922 91.65 386.772 83.4 386.922 67.05C387.072 50.4 381.222 41.25 370.422 41.1C359.022 40.8 353.172 49.5 353.172 65.55ZM407.472 105H387.372C386.622 105 386.022 104.4 386.022 103.65L386.472 96C381.072 102.6 373.422 106.5 363.672 106.5C341.772 106.5 330.222 89.1 330.222 66.6C330.222 44.25 343.122 26.25 364.122 26.25C373.572 26.25 381.072 29.55 386.322 35.85L386.172 1.35C386.172 0.600001 386.772 0 387.522 0H407.472C408.222 0 408.822 0.600001 408.822 1.35L408.522 52.5L408.822 103.65C408.822 104.4 408.222 105 407.472 105Z" fill="#ffffff"/>
  <path d="M437.711 20.25H417.611C416.861 20.25 416.261 19.65 416.261 18.9V1.35C416.261 0.600001 416.861 0 417.611 0H437.711C438.461 0 439.061 0.600001 439.061 1.35V18.9C439.061 19.65 438.461 20.25 437.711 20.25ZM437.861 105H417.611C416.861 105 416.261 104.4 416.261 103.65L416.711 66.45L416.261 29.1C416.261 28.35 416.861 27.75 417.611 27.75H437.861C438.611 27.75 439.211 28.35 439.211 29.1L438.761 66.45L439.211 103.65C439.211 104.4 438.611 105 437.861 105Z" fill="#ffffff"/>
  <path d="M524.119 66.15C524.119 90.75 509.869 106.95 484.669 106.95C459.469 106.95 444.919 91.2 444.919 66.6C444.919 42 459.469 25.8 484.669 25.8C509.869 25.8 524.119 41.55 524.119 66.15ZM467.869 66.75C467.869 84.15 473.419 91.95 484.669 91.95C495.769 91.95 501.019 84.3 501.019 66.6C501.019 49.2 495.619 40.8 484.519 40.8C473.119 40.95 467.869 49.35 467.869 66.75Z" fill="#ffffff"/>
  <path d="M11.2662 107C7.64029 103.652 4.85611 99.3387 2.91367 94.0596C0.971223 88.6516 0 82.793 0 76.4837C0 74.4236 0.258993 71.9128 0.776978 68.9513C1.29496 65.861 1.94245 62.8351 2.71942 59.8736C3.4964 56.9121 4.20863 54.6588 4.85612 53.1137H21.1727C15.9928 46.6757 12.3022 41.0746 10.1007 36.3105C8.02878 31.5463 6.99281 26.5247 6.99281 21.2455C6.99281 17.1251 7.64029 13.198 8.93525 9.4639C10.2302 5.60108 12.0432 2.44645 14.3741 0H76.5324C82.3597 5.02166 85.2734 12.876 85.2734 23.5632C85.2734 25.7521 84.8849 28.2629 84.1079 31.0957C83.4604 33.7996 82.554 36.3748 81.3885 38.8213C80.3525 41.139 79.2518 42.8773 78.0863 44.0361H52.8345C54.777 46.4825 56.9784 49.1865 59.4389 52.148C62.0288 55.1095 64.813 58.2641 67.7914 61.6119L71.482 50.796H103.338L92.4604 83.2437H87.0216L108 107H68.9568L34.5755 68.565C33.9281 71.0114 33.6043 73.136 33.6043 74.9386C33.6043 81.2479 35.2878 87.1709 38.6547 92.7076C42.0216 98.1155 46.036 102.88 50.6978 107H11.2662ZM40.5971 19.3141C40.5971 22.018 41.1151 24.7864 42.1511 27.6191C43.3165 30.4519 45.3237 33.7996 48.1727 37.6624C50.1151 34.9585 51.4748 32.4476 52.2518 30.13C53.0288 27.8123 53.4173 25.3658 53.4173 22.7906C53.4173 19.7004 52.7698 16.7389 51.4748 13.9061C50.1799 10.9446 48.4964 8.36944 46.4245 6.18051C44.6115 7.98315 43.1871 10.0433 42.1511 12.361C41.1151 14.5499 40.5971 16.8676 40.5971 19.3141Z" fill="url(#logo_grad_main)"/>
  <defs>
    <linearGradient id="logo_grad_main" x1="0" y1="53.5" x2="108" y2="53.5" gradientUnits="userSpaceOnUse">
      <stop stop-color="#6100C8"/>
      <stop offset="1" stop-color="#7E23E0"/>
    </linearGradient>
  </defs>
</svg>